<svg width="21" height="19" viewBox="0 0 21 19" fill="none" xmlns="http://www.w3.org/2000/svg">
<path fill-rule="evenodd" clip-rule="evenodd" d="M9.86809 1.96387C9.31097 1.96387 9.02912 2.31328 9.02912 2.59259V6.88173L9.0291 6.88555V7.49436C9.0291 7.7705 8.80525 7.99436 8.5291 7.99436C8.25296 7.99436 8.0291 7.7705 8.0291 7.49436V4.20494C8.0291 3.95584 7.76187 3.60847 7.19013 3.60847C6.61838 3.60847 6.35115 3.95584 6.35115 4.20494V11.8803C6.35115 12.1517 6.13483 12.3726 5.86518 12.3801C5.77004 12.3836 5.67285 12.36 5.58564 12.3064L2.9446 10.6846C2.4371 10.4903 2.04882 10.6342 1.8909 10.8268C1.75771 10.9893 1.62615 11.4057 2.16806 12.1287C2.22478 12.2043 2.29852 12.3114 2.38974 12.4437C2.73797 12.9491 3.34086 13.824 4.22347 14.7357C5.33176 15.8806 6.82322 17.0151 8.656 17.4229C9.71422 17.6583 11.1252 17.6422 11.9152 17.6332L11.9155 17.6332C12.0429 17.6317 12.1541 17.6304 12.2451 17.6304C13.2617 17.6304 14.2192 17.3285 14.9132 16.7466C15.5952 16.1748 16.0592 15.3036 16.0592 14.0733C16.0592 14.0511 16.0607 14.0292 16.0635 14.0078V4.70091C16.0635 4.50085 15.821 4.15665 15.2245 4.15665C14.628 4.15665 14.3855 4.50085 14.3855 4.70091V8.04254C14.3855 8.31868 14.1617 8.54254 13.8855 8.54254C13.6094 8.54254 13.3855 8.31868 13.3855 8.04254V4.80006C13.3841 4.78462 13.3833 4.76898 13.3833 4.75317V3.078C13.3833 2.85749 13.1304 2.51199 12.5444 2.51199C11.9859 2.51199 11.7299 2.82578 11.7071 3.04614V8.0427C11.7071 8.31885 11.4832 8.5427 11.2071 8.5427C10.9309 8.5427 10.7071 8.31885 10.7071 8.0427V4.79449C10.706 4.78086 10.7054 4.76708 10.7054 4.75317V3.078C10.7054 3.05393 10.706 3.03009 10.7071 3.00649V2.59259C10.7071 2.31328 10.4252 1.96387 9.86809 1.96387ZM11.481 1.79521C11.156 1.27487 10.5232 0.963867 9.86809 0.963867C8.92557 0.963867 8.02912 1.60773 8.02912 2.59259V2.78214C7.76939 2.66898 7.48058 2.60847 7.19013 2.60847C6.26221 2.60847 5.35115 3.226 5.35115 4.20494V10.9889L3.43098 9.80975L3.39637 9.78849L3.35877 9.7731C2.54448 9.43972 1.63011 9.56767 1.11757 10.1928C0.576664 10.8526 0.677063 11.8067 1.36787 12.7284C1.40674 12.7803 1.46426 12.864 1.5396 12.9737L1.53973 12.9739L1.53979 12.974L1.53981 12.974C1.87191 13.4575 2.55004 14.4448 3.50497 15.4312C4.68235 16.6475 6.33888 17.9317 8.43881 18.399C9.62603 18.6631 11.1855 18.6431 11.9538 18.6332H11.9539H11.9539H11.954H11.954C12.0706 18.6317 12.169 18.6304 12.2451 18.6304C13.4478 18.6304 14.6474 18.2744 15.5556 17.513C16.1391 17.0238 16.5871 16.3795 16.8369 15.5883C16.9734 15.499 17.0635 15.3448 17.0635 15.1696V4.70091C17.0635 3.7314 16.1276 3.15665 15.2245 3.15665C14.937 3.15665 14.6462 3.21488 14.3833 3.32555V3.078C14.3833 2.10458 13.458 1.51199 12.5444 1.51199C12.1705 1.51199 11.7946 1.61123 11.481 1.79521Z" fill="#9EA5B4"/>
<line x1="0.5" y1="-0.5" x2="25.8954" y2="-0.5" transform="matrix(0.747409 0.664364 -0.747409 0.664364 0.537109 1.46387)" stroke="#9EA5B4" stroke-linecap="round" stroke-linejoin="round"/>
</svg>
