<svg width="26" height="23" viewBox="0 0 26 23" fill="none" xmlns="http://www.w3.org/2000/svg">
<path d="M3.61111 4.91667H4.91667C5.60918 4.91667 6.27332 4.64157 6.763 4.15189C7.25268 3.66221 7.52778 2.99807 7.52778 2.30556C7.52778 1.9593 7.66533 1.62723 7.91017 1.38239C8.15501 1.13755 8.48708 1 8.83333 1H16.6667C17.0129 1 17.345 1.13755 17.5898 1.38239C17.8347 1.62723 17.9722 1.9593 17.9722 2.30556C17.9722 2.99807 18.2473 3.66221 18.737 4.15189C19.2267 4.64157 19.8908 4.91667 20.5833 4.91667H21.8889C22.5814 4.91667 23.2455 5.19176 23.7352 5.68144C24.2249 6.17112 24.5 6.83527 24.5 7.52778V19.2778C24.5 19.9703 24.2249 20.6344 23.7352 21.1241C23.2455 21.6138 22.5814 21.8889 21.8889 21.8889H3.61111C2.9186 21.8889 2.25445 21.6138 1.76478 21.1241C1.2751 20.6344 1 19.9703 1 19.2778V7.52778C1 6.83527 1.2751 6.17112 1.76478 5.68144C2.25445 5.19176 2.9186 4.91667 3.61111 4.91667" stroke="#2F88E0" stroke-width="2" stroke-linecap="round" stroke-linejoin="round"/>
<path d="M12.7507 16.6668C14.9138 16.6668 16.6673 14.9133 16.6673 12.7502C16.6673 10.587 14.9138 8.8335 12.7507 8.8335C10.5875 8.8335 8.83398 10.587 8.83398 12.7502C8.83398 14.9133 10.5875 16.6668 12.7507 16.6668Z" stroke="#2F88E0" stroke-width="2" stroke-linecap="round" stroke-linejoin="round"/>
</svg>
