<svg width="28" height="26" viewBox="0 0 28 26" fill="none" xmlns="http://www.w3.org/2000/svg">
<path d="M0.799988 25L2.70517 19.1577C1.05857 16.6684 0.462907 13.7205 1.02893 10.8621C1.59495 8.00367 3.28415 5.42929 5.78244 3.61758C8.28073 1.80587 11.4181 0.880117 14.6112 1.01246C17.8044 1.1448 20.836 2.32622 23.1424 4.33706C25.4487 6.3479 26.873 9.05132 27.1502 11.9447C27.4275 14.838 26.539 17.7244 24.6498 20.0672C22.7606 22.41 19.9993 24.0497 16.8794 24.6814C13.7595 25.3132 10.4933 24.8941 7.68796 23.502L0.799988 25" stroke="white" stroke-width="1.5" stroke-linecap="round" stroke-linejoin="round"/>
<circle cx="7.99999" cy="12.9998" r="0.7" stroke="white"/>
<circle cx="14" cy="12.9998" r="0.7" stroke="white"/>
<circle cx="20" cy="12.9998" r="0.7" stroke="white"/>
</svg>
