<svg width="23" height="21" viewBox="0 0 23 21" fill="none" xmlns="http://www.w3.org/2000/svg">
<path d="M1 20.0909L2.51549 15.4436C1.20569 13.4635 0.731868 11.1186 1.18211 8.84483C1.63236 6.5711 2.97604 4.5233 4.96331 3.08216C6.95059 1.64103 9.44623 0.904639 11.9862 1.00991C14.5262 1.11518 16.9377 2.05495 18.7723 3.65448C20.607 5.25401 21.7399 7.40446 21.9604 9.70599C22.181 12.0075 21.4742 14.3035 19.9714 16.1671C18.4687 18.0306 16.2722 19.335 13.7905 19.8375C11.3087 20.3401 8.71057 20.0067 6.47907 18.8993L1 20.0909" stroke="#2F88E0" stroke-width="1.5" stroke-linecap="round" stroke-linejoin="round"/>
<circle cx="6.72701" cy="10.5454" r="0.5" stroke="#2F88E0" stroke-width="0.909091"/>
<circle cx="11.5004" cy="10.5454" r="0.5" stroke="#2F88E0" stroke-width="0.909091"/>
<circle cx="16.2729" cy="10.5454" r="0.5" stroke="#2F88E0" stroke-width="0.909091"/>
</svg>
