<svg width="40" height="33" viewBox="0 0 40 33" fill="none" xmlns="http://www.w3.org/2000/svg">
<path d="M10.8603 32.3929H30.271C32.0749 32.3929 33.5422 30.7902 33.5422 28.7991H14.1435C14.1435 30.7902 12.6763 32.3929 10.8603 32.3929ZM10.8603 32.3929C9.05629 32.3929 7.58906 30.7902 7.58906 28.7991L7.72135 4.20083C7.72135 2.20966 6.13386 0.607014 4.16152 0.607014C2.2012 0.607014 0.601684 2.20966 0.601684 4.20083C0.601684 4.20083 0.301022 7.89178 4.89513 6.11916" stroke="#005694" stroke-width="1.5" stroke-miterlimit="10" stroke-linecap="round" stroke-linejoin="round"/>
<path d="M28.8047 18.9038V28.7989" stroke="#005694" stroke-width="1.5" stroke-miterlimit="10" stroke-linecap="round" stroke-linejoin="round"/>
<path d="M4.16211 0.607014H25.2445C27.2048 0.607014 28.8043 2.20966 28.8043 4.20083V5.51209" stroke="#005694" stroke-width="1.5" stroke-miterlimit="10" stroke-linecap="round" stroke-linejoin="round"/>
<path d="M23.1031 19.5841L17.7754 19.5234L19.7357 14.5212L36.0316 3.4726L39.399 8.52338L23.1031 19.5841Z" stroke="#005694" stroke-width="1.5" stroke-miterlimit="10" stroke-linejoin="round"/>
<path d="M32.4004 5.93721L35.7558 10.988" stroke="#005694" stroke-width="1.5" stroke-miterlimit="10"/>
<path d="M21.4785 13.3436L24.8459 18.3944" stroke="#005694" stroke-width="1.5" stroke-miterlimit="10"/>
</svg>
