<svg width="19" height="20" viewBox="0 0 19 20" fill="none" xmlns="http://www.w3.org/2000/svg">
<path d="M3.92466 13.7533H0V0H14.6872C15.811 0 16.8052 0.807993 17.0386 1.91138L18.949 10.8341C19.096 11.5378 18.9231 12.2763 18.4563 12.8497C17.9895 13.4231 17.3152 13.7533 16.5891 13.7533H11.1516L11.4196 14.8306L11.4887 14.8827C11.5147 14.9001 11.5406 14.9175 11.5665 14.9435C11.6962 15.0391 11.7913 15.1173 11.9988 15.3866C12.3532 15.8732 12.7768 16.7072 12.7768 17.8801C12.7941 19.0356 11.7308 20 10.4773 20H10.218L10.0191 19.8175L3.92466 13.7533ZM3.55294 1.26846H1.25347V12.4935H3.5443V1.26846H3.55294ZM10.6675 18.6794L10.8058 18.6533C11.2985 18.5578 11.5406 18.3058 11.5406 17.8975C11.5406 17.1937 11.3677 16.603 11.0219 16.1251C10.7885 15.8036 10.5983 15.6907 10.5465 15.656L10.339 15.543L10.2612 15.2911L9.73386 13.2928L9.53503 12.5022H16.5977C16.9521 12.5022 17.272 12.3545 17.4881 12.0851C17.7042 11.8158 17.7907 11.4596 17.7129 11.1034L15.8283 2.18071C15.7159 1.65074 15.2405 1.27715 14.6872 1.27715H4.80642V12.8758L10.6675 18.6794Z" fill="#9EA5B4"/>
</svg>
