<svg width="32" height="32" viewBox="0 0 32 32" fill="none" xmlns="http://www.w3.org/2000/svg">
  <path d="M23.3333 32H3.33333C1.496 32 0 30.504 0 28.6667V3.33333C0 1.496 1.496 0 3.33333 0H12.6667C13.0347 0 13.3333 0.298667 13.3333 0.666667C13.3333 1.03467 13.0347 1.33333 12.6667 1.33333H3.33333C2.23067 1.33333 1.33333 2.23067 1.33333 3.33333V28.6667C1.33333 29.7693 2.23067 30.6667 3.33333 30.6667H23.3333C24.436 30.6667 25.3333 29.7693 25.3333 28.6667V20.6667C25.3333 20.2987 25.632 20 26 20C26.368 20 26.6667 20.2987 26.6667 20.6667V28.6667C26.6667 30.504 25.1707 32 23.3333 32Z" fill="#2F88E0"/>
  <path d="M23.3327 17.3333C18.554 17.3333 14.666 13.4453 14.666 8.66667C14.666 3.888 18.554 0 23.3327 0C28.1113 0 31.9993 3.888 31.9993 8.66667C31.9993 13.4453 28.1113 17.3333 23.3327 17.3333ZM23.3327 1.33333C19.2887 1.33333 15.9993 4.62267 15.9993 8.66667C15.9993 12.7107 19.2887 16 23.3327 16C27.3767 16 30.666 12.7107 30.666 8.66667C30.666 4.62267 27.3767 1.33333 23.3327 1.33333Z" fill="#2F88E0"/>
  <path d="M23.3327 13.3333C22.9647 13.3333 22.666 13.0347 22.666 12.6667V4.66667C22.666 4.29867 22.9647 4 23.3327 4C23.7007 4 23.9993 4.29867 23.9993 4.66667V12.6667C23.9993 13.0347 23.7007 13.3333 23.3327 13.3333Z" fill="#2F88E0"/>
  <path d="M27.3327 9.33333H19.3327C18.9647 9.33333 18.666 9.03467 18.666 8.66667C18.666 8.29867 18.9647 8 19.3327 8H27.3327C27.7007 8 27.9993 8.29867 27.9993 8.66667C27.9993 9.03467 27.7007 9.33333 27.3327 9.33333Z" fill="#2F88E0"/>
</svg>
