<svg width="20" height="16" viewBox="0 0 20 16" fill="none" xmlns="http://www.w3.org/2000/svg">
<path d="M7.414 7.8396C8.45442 7.8396 9.43244 7.43145 10.169 6.69158C10.9042 5.95171 11.3098 4.96613 11.3098 3.91912C11.3098 2.87211 10.9042 1.88789 10.169 1.14666C9.43244 0.408156 8.45442 0 7.414 0C6.37357 0 5.39555 0.408156 4.66033 1.14803C3.92512 1.88789 3.51953 2.87348 3.51953 3.92049C3.51953 4.96749 3.92512 5.95171 4.66033 6.69294C5.39555 7.43281 6.37357 7.8396 7.414 7.8396ZM7.414 1.19717C8.137 1.19717 8.8166 1.4811 9.328 1.99437C9.83939 2.50764 10.1202 3.1929 10.1202 3.92049C10.1202 4.64807 9.83803 5.33197 9.328 5.8466C8.8166 6.36123 8.137 6.6438 7.414 6.6438C6.69099 6.6438 6.01139 6.35987 5.5 5.8466C4.9886 5.33197 4.70781 4.64807 4.70781 3.92049C4.70781 3.1929 4.98996 2.509 5.5 1.99437C6.01139 1.47974 6.69099 1.19717 7.414 1.19717Z" fill="#2F88E0"/>
<path d="M12.5827 14.8028H1.32664C1.43787 14.2527 1.62235 13.7217 1.87602 13.2207C2.20157 12.5791 2.63429 12.0017 3.16061 11.5034C4.31633 10.41 5.82745 9.80802 7.41454 9.80802C8.08736 9.80802 8.74932 9.91586 9.3828 10.1288C10.0136 10.3404 10.6036 10.6516 11.1367 11.0543C11.385 11.2427 11.739 11.2045 11.9425 10.9683C12.0496 10.8441 12.1025 10.6776 12.0849 10.5138C12.0673 10.3486 11.9818 10.1971 11.8502 10.0974C11.2235 9.6251 10.5317 9.25652 9.79246 9.00398C9.02876 8.74325 8.22843 8.61084 7.41454 8.61084C5.5236 8.61084 3.72355 9.32751 2.34672 10.6312C0.975312 11.928 0.151926 13.6794 0.0284862 15.5618L0 15.9987H12.5827C12.7428 15.9987 12.8934 15.9359 13.006 15.8212C13.1186 15.7065 13.1796 15.555 13.1782 15.3939C13.1742 15.069 12.9069 14.8028 12.5827 14.8028Z" fill="#2F88E0"/>
<path d="M19.408 11.6321H16.8511V9.0603C16.8511 8.72996 16.5839 8.4624 16.2569 8.4624C15.93 8.4624 15.6628 8.73132 15.6628 9.0603V11.6335H13.1059C12.7776 11.6335 12.5117 11.9024 12.5117 12.2314C12.5117 12.5603 12.7789 12.8293 13.1059 12.8293H15.6628V15.4024C15.6628 15.7328 15.93 16.0003 16.2569 16.0003C16.5839 16.0003 16.8511 15.7314 16.8511 15.4024V12.8293H19.408C19.7363 12.8293 20.0022 12.5603 20.0022 12.2314C20.0022 11.9024 19.7349 11.6321 19.408 11.6321Z" fill="#2F88E0"/>
</svg>
