<svg width="25" height="20" viewBox="0 0 25 20" fill="none" xmlns="http://www.w3.org/2000/svg">
<path d="M9.09749 9.80743C10.346 9.80743 11.5196 9.31764 12.4035 8.4298C13.2858 7.54196 13.7725 6.35926 13.7725 5.10285C13.7725 3.84643 13.2858 2.66537 12.4035 1.77589C11.5196 0.88969 10.346 0.399902 9.09749 0.399902C7.84898 0.399902 6.67535 0.88969 5.7931 1.77753C4.91084 2.66537 4.42413 3.84807 4.42413 5.10449C4.42413 6.3609 4.91084 7.54196 5.7931 8.43144C6.67535 9.31928 7.84898 9.80743 9.09749 9.80743ZM9.09749 1.8365C9.9651 1.8365 10.7806 2.17723 11.3943 2.79315C12.008 3.40907 12.3449 4.23139 12.3449 5.10449C12.3449 5.97758 12.0063 6.79826 11.3943 7.41582C10.7806 8.03338 9.9651 8.37247 9.09749 8.37247C8.22988 8.37247 7.41437 8.03174 6.80069 7.41582C6.18702 6.79826 5.85007 5.97758 5.85007 5.10449C5.85007 4.23139 6.18865 3.4107 6.80069 2.79315C7.41437 2.17559 8.22988 1.8365 9.09749 1.8365Z" fill="white"/>
<path d="M15.2993 18.1633H1.79198C1.92546 17.5032 2.14684 16.8659 2.45123 16.2648C2.8419 15.4949 3.36116 14.8019 3.99274 14.204C5.37961 12.8919 7.19296 12.1695 9.09746 12.1695C9.90484 12.1695 10.6992 12.2989 11.4594 12.5545C12.2163 12.8084 12.9244 13.1819 13.5641 13.6651C13.862 13.8912 14.2868 13.8453 14.531 13.5619C14.6596 13.4128 14.7231 13.213 14.7019 13.0164C14.6808 12.8182 14.5782 12.6364 14.4203 12.5168C13.6683 11.95 12.8381 11.5077 11.951 11.2047C11.0345 10.8918 10.0741 10.7329 9.09746 10.7329C6.82834 10.7329 4.66827 11.5929 3.01607 13.1573C1.37039 14.7135 0.382324 16.8152 0.234196 19.0741L0.200012 19.5983H15.2993C15.4914 19.5983 15.6721 19.5229 15.8072 19.3853C15.9423 19.2477 16.0155 19.0659 16.0139 18.8726C16.009 18.4827 15.6883 18.1633 15.2993 18.1633Z" fill="white"/>
<path d="M23.4886 14.3583H20.4202V11.2722C20.4202 10.8758 20.0996 10.5547 19.7073 10.5547C19.315 10.5547 18.9943 10.8774 18.9943 11.2722V14.36H15.926C15.5321 14.36 15.213 14.6827 15.213 15.0774C15.213 15.4722 15.5337 15.7949 15.926 15.7949H18.9943V18.8827C18.9943 19.2791 19.315 19.6002 19.7073 19.6002C20.0996 19.6002 20.4202 19.2775 20.4202 18.8827V15.7949H23.4886C23.8825 15.7949 24.2016 15.4722 24.2016 15.0774C24.2016 14.6827 23.8809 14.3583 23.4886 14.3583Z" fill="white"/>
</svg>
