<svg width="19" height="20" viewBox="0 0 19 20" fill="none" xmlns="http://www.w3.org/2000/svg">
<path d="M3.92466 6.24674H0V20H14.6872C15.811 20 16.8052 19.192 17.0386 18.0886L18.949 9.16594C19.096 8.46221 18.9231 7.72372 18.4563 7.1503C17.9895 6.57689 17.3152 6.24674 16.5891 6.24674H11.1516L11.4196 5.16942L11.4887 5.11729C11.5147 5.09991 11.5406 5.08254 11.5665 5.05647C11.6962 4.9609 11.7913 4.88271 11.9988 4.61338C12.3532 4.12685 12.7768 3.29279 12.7768 2.1199C12.7941 0.964379 11.7308 0 10.4773 0H10.218L10.0191 0.18245L3.92466 6.24674ZM3.55294 18.7315H1.25347V7.50652H3.5443V18.7315H3.55294ZM10.6675 1.32059L10.8058 1.34666C11.2985 1.44222 11.5406 1.69418 11.5406 2.10252C11.5406 2.80626 11.3677 3.39705 11.0219 3.87489C10.7885 4.19635 10.5983 4.3093 10.5465 4.34405L10.339 4.45699L10.2612 4.70895L9.73386 6.70721L9.53503 7.49783H16.5977C16.9521 7.49783 17.272 7.64553 17.4881 7.91486C17.7042 8.18419 17.7907 8.5404 17.7129 8.89661L15.8283 17.8193C15.7159 18.3493 15.2405 18.7229 14.6872 18.7229H4.80642V7.12424L10.6675 1.32059Z" fill="#9EA5B4"/>
</svg>
