<svg
  width="20"
  height="22"
  viewBox="0 0 20 22"
  fill="none"
  xmlns="http://www.w3.org/2000/svg"
>
  <path d="M17.6721 15.747C17.2849 15.2223 16.4852 14.3385 14.9314 12.8322L14.8962 12.7845C14.5378 12.3489 14.0754 12.3214 13.4384 12.6065C13.1645 12.7346 12.9321 12.869 12.5025 13.1855L11.6433 13.8184L11.5189 13.7996C11.1871 13.7495 10.0909 12.8633 9.17555 11.623C8.40725 10.5321 7.5193 8.82973 7.89492 8.58985L8.65868 8.02722C8.80188 7.92173 8.84962 7.88656 8.94509 7.81624C9.13603 7.67558 9.27923 7.57009 9.38097 7.45832C9.93111 6.90578 10.054 6.37341 9.74341 5.90264L9.70821 5.85494C8.7561 4.01576 8.15996 2.9085 7.73121 2.37749C7.50355 1.91926 6.99575 1.63059 6.41515 1.54281C5.83456 1.45504 5.22265 1.57443 4.79303 1.89091C4.27421 2.23629 4.12474 2.38321 3.59965 2.77002C0.926491 4.73922 1.51204 10.1254 4.96233 14.8003C6.61707 17.0424 8.685 18.796 10.7953 19.7083C11.469 20.0221 12.1614 20.2115 12.7835 20.3056C14.0691 20.4999 15.2037 20.29 16.0692 19.6156C16.5466 19.264 16.9285 18.9827 17.2626 18.7365C18.0389 18.091 18.4052 16.7902 17.6721 15.747ZM7.89665 6.89488L7.13289 7.45751C5.5099 8.65309 7.48538 11.5794 8.11911 12.438C8.92887 13.5352 9.78248 14.3424 10.5203 14.7929C11.3411 15.2561 12.0172 15.2735 12.59 14.8516L13.3537 14.2889C13.6402 14.0779 13.7771 14.0139 13.8788 13.9021L14.0158 13.8381L14.1277 13.9397C15.493 15.2904 16.2284 16.0373 16.539 16.5081C16.7792 16.8835 16.6626 17.3744 16.3699 17.6268C16.0772 17.8792 15.6953 18.1605 15.2243 18.4708C14.2696 19.174 12.6686 19.1015 10.973 18.2519C9.23601 17.3959 7.47479 15.8582 6.0665 13.9501C3.14432 9.9907 2.39828 5.38554 4.45089 3.87347C4.97597 3.48666 5.11918 3.38117 5.64426 2.99436C5.93067 2.78338 6.51753 2.82972 6.72251 3.15737C7.08085 3.59297 7.64805 4.6111 8.46558 6.21803L8.52973 6.35487L8.38027 6.5018C8.32627 6.5784 8.2308 6.64873 8.13533 6.71905C8.08759 6.75422 7.99212 6.82455 7.89665 6.89488Z" fill="#ff4079" />
</svg>
