<svg width="17" height="18" viewBox="0 0 17 18" fill="none" xmlns="http://www.w3.org/2000/svg">
<path d="M7.928 12.068C7.848 12.068 7.784 12.044 7.736 11.996C7.688 11.948 7.664 11.884 7.664 11.804V11.312C7.68 10.888 7.788 10.52 7.988 10.208C8.196 9.896 8.488 9.548 8.864 9.164C9.152 8.868 9.364 8.624 9.5 8.432C9.644 8.24 9.728 8.032 9.752 7.808C9.76 7.776 9.764 7.724 9.764 7.652C9.764 7.284 9.608 6.992 9.296 6.776C8.984 6.56 8.62 6.452 8.204 6.452C7.756 6.452 7.38 6.572 7.076 6.812C6.78 7.044 6.588 7.412 6.5 7.916C6.468 8.092 6.364 8.18 6.188 8.18H5.66C5.588 8.18 5.524 8.156 5.468 8.108C5.42 8.06 5.396 7.996 5.396 7.916C5.412 7.476 5.536 7.072 5.768 6.704C6.008 6.328 6.34 6.032 6.764 5.816C7.196 5.592 7.688 5.48 8.24 5.48C8.824 5.48 9.316 5.58 9.716 5.78C10.116 5.98 10.412 6.244 10.604 6.572C10.796 6.892 10.892 7.232 10.892 7.592C10.892 8 10.8 8.352 10.616 8.648C10.432 8.944 10.156 9.288 9.788 9.68C9.484 10.008 9.256 10.288 9.104 10.52C8.952 10.744 8.864 10.996 8.84 11.276C8.824 11.5 8.816 11.668 8.816 11.78C8.776 11.972 8.676 12.068 8.516 12.068H7.928ZM7.82 14C7.74 14 7.672 13.976 7.616 13.928C7.568 13.872 7.544 13.804 7.544 13.724V13.028C7.544 12.948 7.568 12.88 7.616 12.824C7.672 12.768 7.74 12.74 7.82 12.74H8.564C8.644 12.74 8.712 12.768 8.768 12.824C8.824 12.88 8.852 12.948 8.852 13.028V13.724C8.852 13.804 8.824 13.872 8.768 13.928C8.712 13.976 8.644 14 8.564 14H7.82Z" fill="#9EA5B4"/>
<circle cx="8.5" cy="9.5" r="8" stroke="#9EA5B4"/>
</svg>
