<svg width="20" height="17" viewBox="0 0 20 17" fill="none" xmlns="http://www.w3.org/2000/svg">
<path fill-rule="evenodd" clip-rule="evenodd" d="M14.7005 16.5763C15.8608 17.0839 16.2958 16.0203 16.2958 16.0203L19.3656 0.599199C19.3414 -0.440157 17.9395 0.188291 17.9395 0.188291L0.753835 6.93202C0.753835 6.93202 -0.0679821 7.22208 0.00453118 7.72967C0.0770444 8.23726 0.729663 8.47897 0.729663 8.47897L5.05629 9.92924C5.05629 9.92924 6.36152 14.2075 6.62741 15.0293C6.86912 15.827 7.08666 15.8512 7.08666 15.8512C7.32837 15.9478 7.54591 15.7786 7.54591 15.7786L10.3498 13.2407L14.7005 16.5763ZM15.4494 3.33008C15.4494 3.33008 16.0536 2.96751 16.0295 3.33008C16.0295 3.33008 16.1262 3.37842 15.8119 3.71682C15.5219 4.00687 8.68146 10.1463 7.76296 10.9681C7.69045 11.0165 7.64211 11.089 7.64211 11.1857L7.37622 13.4578C7.32788 13.6995 7.01366 13.7236 6.94114 13.5061L5.8051 9.78376C5.75676 9.63873 5.8051 9.46953 5.95013 9.37285L15.4494 3.33008Z" fill="white"/>
</svg>
