<svg width="19" height="19" viewBox="0 0 19 19" fill="none" xmlns="http://www.w3.org/2000/svg">
<path d="M1 8.65833C1.21219 6.57525 2.18385 4.64319 3.7296 3.23078C5.27536 1.81837 7.287 1.02447 9.38072 1.00056C11.4744 0.976642 13.5037 1.72438 15.0813 3.10112C16.6589 4.47786 17.6745 6.38722 17.9342 8.46491C18.1939 10.5426 17.6796 12.6432 16.4894 14.3659C15.2992 16.0886 13.5165 17.3129 11.4813 17.8051C9.4461 18.2973 7.30093 18.023 5.45507 17.0345C4.45927 16.515 2.32563 14.8245 1.37875 12.4459M1 17.1803V12.4459H1.37875M5.7344 12.4459H1.37875" stroke="#C1CFE9" stroke-width="1.3" stroke-linecap="round" stroke-linejoin="round"/>
<path d="M9.33203 5.92383V9.71135L11.2258 11.6051" stroke="#C1CFE9" stroke-width="1.3" stroke-linecap="round" stroke-linejoin="round"/>
</svg>
